<svg width="106" height="148" viewBox="0 0 106 148" fill="none" xmlns="http://www.w3.org/2000/svg">
<g filter="url(#filter0_d_66_228)">
<rect x="4.5" y="0.5" width="97" height="139" rx="4.5" fill="#D9D9D9" stroke="#002058"/>
<line x1="63.7969" y1="29.2681" x2="96.1867" y2="29.2681" stroke="#18388C" stroke-width="0.5"/>
<line x1="25.593" y1="41.0753" x2="96.1862" y2="41.0753" stroke="#18388C" stroke-width="0.5"/>
<line x1="13.1355" y1="52.0392" x2="96.1863" y2="52.0392" stroke="#18388C" stroke-width="0.5"/>
<line x1="13.1355" y1="63.8464" x2="96.1863" y2="63.8464" stroke="#18388C" stroke-width="0.5"/>
<line x1="13.1355" y1="87.4608" x2="96.1863" y2="87.4608" stroke="#18388C" stroke-width="0.5"/>
<line x1="13.1355" y1="98.4247" x2="96.1863" y2="98.4247" stroke="#18388C" stroke-width="0.5"/>
<line x1="13.1355" y1="110.232" x2="96.1863" y2="110.232" stroke="#18388C" stroke-width="0.5"/>
<line x1="13.1355" y1="122.039" x2="96.1863" y2="122.039" stroke="#18388C" stroke-width="0.5"/>
<line x1="13.1355" y1="75.6536" x2="96.1863" y2="75.6536" stroke="#18388C" stroke-width="0.5"/>
<rect x="4.5" y="0.5" width="97" height="139" rx="4.5" fill="#D9D9D9" stroke="#002058"/>
<line x1="63.7969" y1="29.2681" x2="96.1867" y2="29.2681" stroke="#18388C" stroke-width="0.5"/>
<line x1="25.593" y1="41.0753" x2="96.1862" y2="41.0753" stroke="#18388C" stroke-width="0.5"/>
<line x1="13.1355" y1="52.0392" x2="96.1863" y2="52.0392" stroke="#18388C" stroke-width="0.5"/>
<line x1="13.1355" y1="63.8464" x2="96.1863" y2="63.8464" stroke="#18388C" stroke-width="0.5"/>
<line x1="13.1355" y1="87.4608" x2="96.1863" y2="87.4608" stroke="#18388C" stroke-width="0.5"/>
<line x1="13.1355" y1="98.4247" x2="96.1863" y2="98.4247" stroke="#18388C" stroke-width="0.5"/>
<line x1="13.1355" y1="110.232" x2="96.1863" y2="110.232" stroke="#18388C" stroke-width="0.5"/>
<line x1="13.1355" y1="122.039" x2="96.1863" y2="122.039" stroke="#18388C" stroke-width="0.5"/>
<line x1="13.1355" y1="75.6536" x2="96.1863" y2="75.6536" stroke="#18388C" stroke-width="0.5"/>
</g>
<defs>
<filter id="filter0_d_66_228" x="0" y="0" width="106" height="148" filterUnits="userSpaceOnUse" color-interpolation-filters="sRGB">
<feFlood flood-opacity="0" result="BackgroundImageFix"/>
<feColorMatrix in="SourceAlpha" type="matrix" values="0 0 0 0 0 0 0 0 0 0 0 0 0 0 0 0 0 0 127 0" result="hardAlpha"/>
<feOffset dy="4"/>
<feGaussianBlur stdDeviation="2"/>
<feComposite in2="hardAlpha" operator="out"/>
<feColorMatrix type="matrix" values="0 0 0 0 0 0 0 0 0 0 0 0 0 0 0 0 0 0 0.25 0"/>
<feBlend mode="normal" in2="BackgroundImageFix" result="effect1_dropShadow_66_228"/>
<feBlend mode="normal" in="SourceGraphic" in2="effect1_dropShadow_66_228" result="shape"/>
</filter>
</defs>
</svg>
