<svg width="98" height="98" viewBox="0 0 98 98" fill="none" xmlns="http://www.w3.org/2000/svg">
<rect x="0.5" y="0.5" width="97" height="97" rx="11.5" fill="#D9D9D9" stroke="#4472C4"/>
<rect x="16.5" y="23.5" width="63" height="66" rx="4.5" fill="#D9D9D9" stroke="#4472C4"/>
<rect x="16.5" y="23.5" width="63" height="66" rx="4.5" fill="#D9D9D9" stroke="#4472C4"/>
<path d="M17.5078 9.92773L15.1875 17H13.3184L16.4883 8.46875H17.6777L17.5078 9.92773ZM19.4355 17L17.1094 9.92773L16.9219 8.46875H18.123L21.3105 17H19.4355ZM19.3301 13.8242V15.2012H14.8242V13.8242H19.3301ZM29.0449 8.46875V17H27.2871L23.8594 11.2812V17H22.1016V8.46875H23.8594L27.293 14.1934V8.46875H29.0449ZM37.582 12.5352V12.9395C37.582 13.5879 37.4941 14.1699 37.3184 14.6855C37.1426 15.2012 36.8945 15.6406 36.5742 16.0039C36.2539 16.3633 35.8711 16.6387 35.4258 16.8301C34.9844 17.0215 34.4941 17.1172 33.9551 17.1172C33.4199 17.1172 32.9297 17.0215 32.4844 16.8301C32.043 16.6387 31.6602 16.3633 31.3359 16.0039C31.0117 15.6406 30.7598 15.2012 30.5801 14.6855C30.4043 14.1699 30.3164 13.5879 30.3164 12.9395V12.5352C30.3164 11.8828 30.4043 11.3008 30.5801 10.7891C30.7559 10.2734 31.0039 9.83398 31.3242 9.4707C31.6484 9.10742 32.0312 8.83008 32.4727 8.63867C32.918 8.44727 33.4082 8.35156 33.9434 8.35156C34.4824 8.35156 34.9727 8.44727 35.4141 8.63867C35.8594 8.83008 36.2422 9.10742 36.5625 9.4707C36.8867 9.83398 37.1367 10.2734 37.3125 10.7891C37.4922 11.3008 37.582 11.8828 37.582 12.5352ZM35.8066 12.9395V12.5234C35.8066 12.0703 35.7656 11.6719 35.6836 11.3281C35.6016 10.9844 35.4805 10.6953 35.3203 10.4609C35.1602 10.2266 34.9648 10.0508 34.7344 9.93359C34.5039 9.8125 34.2402 9.75195 33.9434 9.75195C33.6465 9.75195 33.3828 9.8125 33.1523 9.93359C32.9258 10.0508 32.7324 10.2266 32.5723 10.4609C32.416 10.6953 32.2969 10.9844 32.2148 11.3281C32.1328 11.6719 32.0918 12.0703 32.0918 12.5234V12.9395C32.0918 13.3887 32.1328 13.7871 32.2148 14.1348C32.2969 14.4785 32.418 14.7695 32.5781 15.0078C32.7383 15.2422 32.9336 15.4199 33.1641 15.541C33.3945 15.6621 33.6582 15.7227 33.9551 15.7227C34.252 15.7227 34.5156 15.6621 34.7461 15.541C34.9766 15.4199 35.1699 15.2422 35.3262 15.0078C35.4824 14.7695 35.6016 14.4785 35.6836 14.1348C35.7656 13.7871 35.8066 13.3887 35.8066 12.9395ZM42.2637 8.46875V17H40.5117V8.46875H42.2637ZM44.8887 8.46875V9.8457H37.9277V8.46875H44.8887ZM48.7266 9.92773L46.4062 17H44.5371L47.707 8.46875H48.8965L48.7266 9.92773ZM50.6543 17L48.3281 9.92773L48.1406 8.46875H49.3418L52.5293 17H50.6543ZM50.5488 13.8242V15.2012H46.043V13.8242H50.5488ZM58.1602 14.1699H59.9121C59.877 14.7441 59.7188 15.2539 59.4375 15.6992C59.1602 16.1445 58.7715 16.4922 58.2715 16.7422C57.7754 16.9922 57.1777 17.1172 56.4785 17.1172C55.9316 17.1172 55.4414 17.0234 55.0078 16.8359C54.5742 16.6445 54.2031 16.3711 53.8945 16.0156C53.5898 15.6602 53.3574 15.2305 53.1973 14.7266C53.0371 14.2227 52.957 13.6582 52.957 13.0332V12.4414C52.957 11.8164 53.0391 11.252 53.2031 10.748C53.3711 10.2402 53.6094 9.80859 53.918 9.45312C54.2305 9.09766 54.6035 8.82422 55.0371 8.63281C55.4707 8.44141 55.9551 8.3457 56.4902 8.3457C57.2012 8.3457 57.8008 8.47461 58.2891 8.73242C58.7812 8.99023 59.1621 9.3457 59.4316 9.79883C59.7051 10.252 59.8691 10.7676 59.9238 11.3457H58.166C58.1465 11.002 58.0781 10.7109 57.9609 10.4727C57.8438 10.2305 57.666 10.0488 57.4277 9.92773C57.1934 9.80273 56.8809 9.74023 56.4902 9.74023C56.1973 9.74023 55.9414 9.79492 55.7227 9.9043C55.5039 10.0137 55.3203 10.1797 55.1719 10.4023C55.0234 10.625 54.9121 10.9062 54.8379 11.2461C54.7676 11.582 54.7324 11.9766 54.7324 12.4297V13.0332C54.7324 13.4746 54.7656 13.8633 54.832 14.1992C54.8984 14.5312 55 14.8125 55.1367 15.043C55.2773 15.2695 55.457 15.4414 55.6758 15.5586C55.8984 15.6719 56.166 15.7285 56.4785 15.7285C56.8457 15.7285 57.1484 15.6699 57.3867 15.5527C57.625 15.4355 57.8066 15.2617 57.9316 15.0312C58.0605 14.8008 58.1367 14.5137 58.1602 14.1699ZM55.8516 16.9766H57.123L57.0586 17.3223C57.2812 17.3613 57.4844 17.4551 57.668 17.6035C57.8516 17.752 57.9434 17.9961 57.9434 18.3359C57.9434 18.543 57.8984 18.7305 57.8086 18.8984C57.7227 19.0664 57.5938 19.2109 57.4219 19.332C57.25 19.457 57.0352 19.5508 56.7773 19.6133C56.5195 19.6797 56.2227 19.7129 55.8867 19.7129L55.8457 18.7754C55.9707 18.7754 56.084 18.7578 56.1855 18.7227C56.2871 18.6875 56.3672 18.6328 56.4258 18.5586C56.4844 18.4883 56.5137 18.3945 56.5137 18.2773C56.5137 18.168 56.4844 18.082 56.4258 18.0195C56.3672 17.957 56.2754 17.9102 56.1504 17.8789C56.0293 17.8477 55.8691 17.8262 55.6699 17.8145L55.8516 16.9766ZM68.0742 12.5352V12.9395C68.0742 13.5879 67.9863 14.1699 67.8105 14.6855C67.6348 15.2012 67.3867 15.6406 67.0664 16.0039C66.7461 16.3633 66.3633 16.6387 65.918 16.8301C65.4766 17.0215 64.9863 17.1172 64.4473 17.1172C63.9121 17.1172 63.4219 17.0215 62.9766 16.8301C62.5352 16.6387 62.1523 16.3633 61.8281 16.0039C61.5039 15.6406 61.252 15.2012 61.0723 14.6855C60.8965 14.1699 60.8086 13.5879 60.8086 12.9395V12.5352C60.8086 11.8828 60.8965 11.3008 61.0723 10.7891C61.248 10.2734 61.4961 9.83398 61.8164 9.4707C62.1406 9.10742 62.5234 8.83008 62.9648 8.63867C63.4102 8.44727 63.9004 8.35156 64.4355 8.35156C64.9746 8.35156 65.4648 8.44727 65.9062 8.63867C66.3516 8.83008 66.7344 9.10742 67.0547 9.4707C67.3789 9.83398 67.6289 10.2734 67.8047 10.7891C67.9844 11.3008 68.0742 11.8828 68.0742 12.5352ZM66.2988 12.9395V12.5234C66.2988 12.0703 66.2578 11.6719 66.1758 11.3281C66.0938 10.9844 65.9727 10.6953 65.8125 10.4609C65.6523 10.2266 65.457 10.0508 65.2266 9.93359C64.9961 9.8125 64.7324 9.75195 64.4355 9.75195C64.1387 9.75195 63.875 9.8125 63.6445 9.93359C63.418 10.0508 63.2246 10.2266 63.0645 10.4609C62.9082 10.6953 62.7891 10.9844 62.707 11.3281C62.625 11.6719 62.584 12.0703 62.584 12.5234V12.9395C62.584 13.3887 62.625 13.7871 62.707 14.1348C62.7891 14.4785 62.9102 14.7695 63.0703 15.0078C63.2305 15.2422 63.4258 15.4199 63.6562 15.541C63.8867 15.6621 64.1504 15.7227 64.4473 15.7227C64.7441 15.7227 65.0078 15.6621 65.2383 15.541C65.4688 15.4199 65.6621 15.2422 65.8184 15.0078C65.9746 14.7695 66.0938 14.4785 66.1758 14.1348C66.2578 13.7871 66.2988 13.3887 66.2988 12.9395ZM65.666 6.20703L66.6387 6.27148C66.6387 6.55664 66.582 6.81641 66.4688 7.05078C66.3555 7.28125 66.1992 7.4668 66 7.60742C65.8008 7.74414 65.5723 7.8125 65.3145 7.8125C65.127 7.8125 64.9648 7.78711 64.8281 7.73633C64.6953 7.68555 64.5723 7.62695 64.459 7.56055C64.3457 7.49023 64.2285 7.42969 64.1074 7.37891C63.9902 7.32812 63.8555 7.30273 63.7031 7.30273C63.5664 7.30273 63.4492 7.35156 63.3516 7.44922C63.2578 7.54688 63.2109 7.6875 63.2109 7.87109L62.2324 7.81836C62.2324 7.53711 62.2891 7.2793 62.4023 7.04492C62.5156 6.81055 62.6719 6.62305 62.8711 6.48242C63.0703 6.33789 63.2969 6.26562 63.5508 6.26562C63.7109 6.26562 63.8574 6.29297 63.9902 6.34766C64.123 6.39844 64.25 6.45703 64.3711 6.52344C64.4961 6.58984 64.623 6.64844 64.752 6.69922C64.8809 6.75 65.0176 6.77539 65.1621 6.77539C65.2988 6.77539 65.416 6.72656 65.5137 6.62891C65.6152 6.52734 65.666 6.38672 65.666 6.20703ZM75.0645 15.6289V17H70.5234V15.6289H75.0645ZM71.0977 8.46875V17H69.3398V8.46875H71.0977ZM74.4727 11.9434V13.2793H70.5234V11.9434H74.4727ZM75.0586 8.46875V9.8457H70.5234V8.46875H75.0586ZM80.5312 14.7676C80.5312 14.6152 80.5078 14.4785 80.4609 14.3574C80.418 14.2324 80.3359 14.1191 80.2148 14.0176C80.0938 13.9121 79.9238 13.8086 79.7051 13.707C79.4863 13.6055 79.2031 13.5 78.8555 13.3906C78.4688 13.2656 78.1016 13.125 77.7539 12.9688C77.4102 12.8125 77.1055 12.6309 76.8398 12.4238C76.5781 12.2129 76.3711 11.9688 76.2188 11.6914C76.0703 11.4141 75.9961 11.0918 75.9961 10.7246C75.9961 10.3691 76.0742 10.0469 76.2305 9.75781C76.3867 9.46484 76.6055 9.21484 76.8867 9.00781C77.168 8.79688 77.5 8.63477 77.8828 8.52148C78.2695 8.4082 78.6934 8.35156 79.1543 8.35156C79.7832 8.35156 80.332 8.46484 80.8008 8.69141C81.2695 8.91797 81.6328 9.22852 81.8906 9.62305C82.1523 10.0176 82.2832 10.4688 82.2832 10.9766H80.5371C80.5371 10.7266 80.4844 10.5078 80.3789 10.3203C80.2773 10.1289 80.1211 9.97852 79.9102 9.86914C79.7031 9.75977 79.4414 9.70508 79.125 9.70508C78.8203 9.70508 78.5664 9.75195 78.3633 9.8457C78.1602 9.93555 78.0078 10.0586 77.9062 10.2148C77.8047 10.3672 77.7539 10.5391 77.7539 10.7305C77.7539 10.875 77.7891 11.0059 77.8594 11.123C77.9336 11.2402 78.043 11.3496 78.1875 11.4512C78.332 11.5527 78.5098 11.6484 78.7207 11.7383C78.9316 11.8281 79.1758 11.916 79.4531 12.002C79.918 12.1426 80.3262 12.3008 80.6777 12.4766C81.0332 12.6523 81.3301 12.8496 81.5684 13.0684C81.8066 13.2871 81.9863 13.5352 82.1074 13.8125C82.2285 14.0898 82.2891 14.4043 82.2891 14.7559C82.2891 15.127 82.2168 15.459 82.0723 15.752C81.9277 16.0449 81.7188 16.293 81.4453 16.4961C81.1719 16.6992 80.8457 16.8535 80.4668 16.959C80.0879 17.0645 79.6641 17.1172 79.1953 17.1172C78.7734 17.1172 78.3574 17.0625 77.9473 16.9531C77.5371 16.8398 77.1641 16.6699 76.8281 16.4434C76.4961 16.2168 76.2305 15.9277 76.0312 15.5762C75.832 15.2246 75.7324 14.8086 75.7324 14.3281H77.4961C77.4961 14.5938 77.5371 14.8184 77.6191 15.002C77.7012 15.1855 77.8164 15.334 77.9648 15.4473C78.1172 15.5605 78.2969 15.6426 78.5039 15.6934C78.7148 15.7441 78.9453 15.7695 79.1953 15.7695C79.5 15.7695 79.75 15.7266 79.9453 15.6406C80.1445 15.5547 80.291 15.4355 80.3848 15.2832C80.4824 15.1309 80.5312 14.959 80.5312 14.7676Z" fill="#254392"/>
<line x1="55" y1="40.75" x2="76" y2="40.75" stroke="#18388C" stroke-width="0.5"/>
<line x1="30" y1="47.75" x2="76" y2="47.75" stroke="#18388C" stroke-width="0.5"/>
<line x1="22" y1="54.75" x2="76" y2="54.75" stroke="#18388C" stroke-width="0.5"/>
<line x1="22" y1="61.75" x2="76" y2="61.75" stroke="#18388C" stroke-width="0.5"/>
<line x1="22" y1="76.75" x2="76" y2="76.75" stroke="#18388C" stroke-width="0.5"/>
<line x1="22" y1="83.75" x2="76" y2="83.75" stroke="#18388C" stroke-width="0.5"/>
<line x1="22" y1="69.75" x2="76" y2="69.75" stroke="#18388C" stroke-width="0.5"/>
</svg>
