<svg width="98" height="98" viewBox="0 0 98 98" fill="none" xmlns="http://www.w3.org/2000/svg">
<rect x="0.5" y="0.5" width="97" height="97" rx="11.5" fill="#D9D9D9" stroke="#4472C4"/>
<rect x="17.5" y="23.5" width="63" height="66" rx="4.5" fill="#D9D9D9" stroke="#4472C4"/>
<rect width="6" height="6" rx="2" transform="matrix(1 0 0 -1 70 51)" fill="#4472C4"/>
<rect width="6" height="6" rx="2" transform="matrix(1 0 0 -1 70 51)" fill="#18388C"/>
<rect width="6" height="6" rx="2" transform="matrix(1 0 0 -1 21 51)" fill="#4472C4"/>
<rect width="6" height="6" rx="2" transform="matrix(1 0 0 -1 21 51)" fill="#4472C4"/>
<rect width="6" height="6" rx="2" transform="matrix(1 0 0 -1 29 51)" fill="#4472C4"/>
<rect width="6" height="6" rx="2" transform="matrix(1 0 0 -1 29 51)" fill="#4472C4"/>
<rect width="7" height="6" rx="2" transform="matrix(1 0 0 -1 37 51)" fill="#4472C4"/>
<rect width="7" height="6" rx="2" transform="matrix(1 0 0 -1 37 51)" fill="#4472C4"/>
<rect width="6" height="6" rx="2" transform="matrix(1 0 0 -1 46 51)" fill="#4472C4"/>
<rect width="6" height="6" rx="2" transform="matrix(1 0 0 -1 46 51)" fill="#4472C4"/>
<rect width="6" height="6" rx="2" transform="matrix(1 0 0 -1 54 51)" fill="#4472C4"/>
<rect width="6" height="6" rx="2" transform="matrix(1 0 0 -1 54 51)" fill="#4472C4"/>
<rect width="6" height="6" rx="2" transform="matrix(1 0 0 -1 62 51)" fill="#4472C4"/>
<rect width="6" height="6" rx="2" transform="matrix(1 0 0 -1 62 51)" fill="#4472C4"/>
<rect width="6" height="6" rx="2" transform="matrix(1 0 0 -1 70 60)" fill="#4472C4"/>
<rect width="6" height="6" rx="2" transform="matrix(1 0 0 -1 70 60)" fill="#254392"/>
<rect width="6" height="6" rx="2" transform="matrix(1 0 0 -1 21 60)" fill="#4472C4"/>
<rect width="6" height="6" rx="2" transform="matrix(1 0 0 -1 21 60)" fill="#4472C4"/>
<rect width="6" height="6" rx="2" transform="matrix(1 0 0 -1 29 60)" fill="#4472C4"/>
<rect width="6" height="6" rx="2" transform="matrix(1 0 0 -1 29 60)" fill="#4472C4"/>
<rect width="7" height="6" rx="2" transform="matrix(1 0 0 -1 37 60)" fill="#4472C4"/>
<rect width="7" height="6" rx="2" transform="matrix(1 0 0 -1 37 60)" fill="#4472C4"/>
<rect width="6" height="6" rx="2" transform="matrix(1 0 0 -1 46 60)" fill="#4472C4"/>
<rect width="6" height="6" rx="2" transform="matrix(1 0 0 -1 46 60)" fill="#4472C4"/>
<rect width="6" height="6" rx="2" transform="matrix(1 0 0 -1 54 60)" fill="#4472C4"/>
<rect width="6" height="6" rx="2" transform="matrix(1 0 0 -1 54 60)" fill="#4472C4"/>
<rect width="6" height="6" rx="2" transform="matrix(1 0 0 -1 62 60)" fill="#4472C4"/>
<rect width="6" height="6" rx="2" transform="matrix(1 0 0 -1 62 60)" fill="#4472C4"/>
<rect width="6" height="6" rx="2" transform="matrix(1 0 0 -1 70 70)" fill="#4472C4"/>
<rect width="6" height="6" rx="2" transform="matrix(1 0 0 -1 70 70)" fill="#18388C"/>
<rect width="6" height="6" rx="2" transform="matrix(1 0 0 -1 21 70)" fill="#4472C4"/>
<rect width="6" height="6" rx="2" transform="matrix(1 0 0 -1 21 70)" fill="#4472C4"/>
<rect width="6" height="6" rx="2" transform="matrix(1 0 0 -1 29 70)" fill="#4472C4"/>
<rect width="6" height="6" rx="2" transform="matrix(1 0 0 -1 29 70)" fill="#4472C4"/>
<rect width="7" height="6" rx="2" transform="matrix(1 0 0 -1 37 70)" fill="#4472C4"/>
<rect width="7" height="6" rx="2" transform="matrix(1 0 0 -1 37 70)" fill="#4472C4"/>
<rect width="6" height="6" rx="2" transform="matrix(1 0 0 -1 46 70)" fill="#4472C4"/>
<rect width="6" height="6" rx="2" transform="matrix(1 0 0 -1 46 70)" fill="#4472C4"/>
<rect width="6" height="6" rx="2" transform="matrix(1 0 0 -1 54 70)" fill="#4472C4"/>
<rect width="6" height="6" rx="2" transform="matrix(1 0 0 -1 54 70)" fill="#4472C4"/>
<rect width="6" height="6" rx="2" transform="matrix(1 0 0 -1 62 70)" fill="#4472C4"/>
<rect width="6" height="6" rx="2" transform="matrix(1 0 0 -1 62 70)" fill="#4472C4"/>
<rect width="6" height="6" rx="2" transform="matrix(1 0 0 -1 70 79)" fill="#4472C4"/>
<rect width="6" height="6" rx="2" transform="matrix(1 0 0 -1 70 79)" fill="#18388C"/>
<rect width="6" height="6" rx="2" transform="matrix(1 0 0 -1 21 79)" fill="#4472C4"/>
<rect width="6" height="6" rx="2" transform="matrix(1 0 0 -1 21 79)" fill="#4472C4"/>
<rect width="6" height="6" rx="2" transform="matrix(1 0 0 -1 29 79)" fill="#4472C4"/>
<rect width="6" height="6" rx="2" transform="matrix(1 0 0 -1 29 79)" fill="#4472C4"/>
<rect width="7" height="6" rx="2" transform="matrix(1 0 0 -1 37 79)" fill="#4472C4"/>
<rect width="7" height="6" rx="2" transform="matrix(1 0 0 -1 37 79)" fill="#4472C4"/>
<rect width="6" height="6" rx="2" transform="matrix(1 0 0 -1 46 79)" fill="#4472C4"/>
<rect width="6" height="6" rx="2" transform="matrix(1 0 0 -1 46 79)" fill="#4472C4"/>
<rect width="6" height="6" rx="2" transform="matrix(1 0 0 -1 54 79)" fill="#4472C4"/>
<rect width="6" height="6" rx="2" transform="matrix(1 0 0 -1 54 79)" fill="#4472C4"/>
<rect width="6" height="6" rx="2" transform="matrix(1 0 0 -1 62 79)" fill="#4472C4"/>
<rect width="6" height="6" rx="2" transform="matrix(1 0 0 -1 62 79)" fill="#4472C4"/>
<path d="M18.2852 14.1699H20.0371C20.002 14.7441 19.8438 15.2539 19.5625 15.6992C19.2852 16.1445 18.8965 16.4922 18.3965 16.7422C17.9004 16.9922 17.3027 17.1172 16.6035 17.1172C16.0566 17.1172 15.5664 17.0234 15.1328 16.8359C14.6992 16.6445 14.3281 16.3711 14.0195 16.0156C13.7148 15.6602 13.4824 15.2305 13.3223 14.7266C13.1621 14.2227 13.082 13.6582 13.082 13.0332V12.4414C13.082 11.8164 13.1641 11.252 13.3281 10.748C13.4961 10.2402 13.7344 9.80859 14.043 9.45312C14.3555 9.09766 14.7285 8.82422 15.1621 8.63281C15.5957 8.44141 16.0801 8.3457 16.6152 8.3457C17.3262 8.3457 17.9258 8.47461 18.4141 8.73242C18.9062 8.99023 19.2871 9.3457 19.5566 9.79883C19.8301 10.252 19.9941 10.7676 20.0488 11.3457H18.291C18.2715 11.002 18.2031 10.7109 18.0859 10.4727C17.9688 10.2305 17.791 10.0488 17.5527 9.92773C17.3184 9.80273 17.0059 9.74023 16.6152 9.74023C16.3223 9.74023 16.0664 9.79492 15.8477 9.9043C15.6289 10.0137 15.4453 10.1797 15.2969 10.4023C15.1484 10.625 15.0371 10.9062 14.9629 11.2461C14.8926 11.582 14.8574 11.9766 14.8574 12.4297V13.0332C14.8574 13.4746 14.8906 13.8633 14.957 14.1992C15.0234 14.5312 15.125 14.8125 15.2617 15.043C15.4023 15.2695 15.582 15.4414 15.8008 15.5586C16.0234 15.6719 16.291 15.7285 16.6035 15.7285C16.9707 15.7285 17.2734 15.6699 17.5117 15.5527C17.75 15.4355 17.9316 15.2617 18.0566 15.0312C18.1855 14.8008 18.2617 14.5137 18.2852 14.1699ZM24.6602 9.92773L22.3398 17H20.4707L23.6406 8.46875H24.8301L24.6602 9.92773ZM26.5879 17L24.2617 9.92773L24.0742 8.46875H25.2754L28.4629 17H26.5879ZM26.4824 13.8242V15.2012H21.9766V13.8242H26.4824ZM34.7383 15.6289V17H30.4434V15.6289H34.7383ZM31.0117 8.46875V17H29.2539V8.46875H31.0117ZM41.4707 15.6289V17H36.9297V15.6289H41.4707ZM37.5039 8.46875V17H35.7461V8.46875H37.5039ZM40.8789 11.9434V13.2793H36.9297V11.9434H40.8789ZM41.4648 8.46875V9.8457H36.9297V8.46875H41.4648ZM49.4395 8.46875V17H47.6816L44.2539 11.2812V17H42.4961V8.46875H44.2539L47.6875 14.1934V8.46875H49.4395ZM53.5879 17H51.7305L51.7422 15.6289H53.5879C54.0488 15.6289 54.4375 15.5254 54.7539 15.3184C55.0703 15.1074 55.3086 14.8008 55.4688 14.3984C55.6328 13.9961 55.7148 13.5098 55.7148 12.9395V12.5234C55.7148 12.0859 55.668 11.7012 55.5742 11.3691C55.4844 11.0371 55.3496 10.7578 55.1699 10.5312C54.9902 10.3047 54.7695 10.1348 54.5078 10.0215C54.2461 9.9043 53.9453 9.8457 53.6055 9.8457H51.6953V8.46875H53.6055C54.1758 8.46875 54.6973 8.56641 55.1699 8.76172C55.6465 8.95312 56.0586 9.22852 56.4062 9.58789C56.7539 9.94727 57.0215 10.377 57.209 10.877C57.4004 11.373 57.4961 11.9258 57.4961 12.5352V12.9395C57.4961 13.5449 57.4004 14.0977 57.209 14.5977C57.0215 15.0977 56.7539 15.5273 56.4062 15.8867C56.0625 16.2422 55.6504 16.5176 55.1699 16.7129C54.6934 16.9043 54.166 17 53.5879 17ZM52.7266 8.46875V17H50.9688V8.46875H52.7266ZM62.1133 9.92773L59.793 17H57.9238L61.0938 8.46875H62.2832L62.1133 9.92773ZM64.041 17L61.7148 9.92773L61.5273 8.46875H62.7285L65.916 17H64.041ZM63.9355 13.8242V15.2012H59.4297V13.8242H63.9355ZM66.707 8.46875H69.8887C70.541 8.46875 71.1016 8.56641 71.5703 8.76172C72.043 8.95703 72.4062 9.24609 72.6602 9.62891C72.9141 10.0117 73.041 10.4824 73.041 11.041C73.041 11.498 72.9629 11.8906 72.8066 12.2188C72.6543 12.543 72.4375 12.8145 72.1562 13.0332C71.8789 13.248 71.5527 13.4199 71.1777 13.5488L70.6211 13.8418H67.8555L67.8438 12.4707H69.9004C70.209 12.4707 70.4648 12.416 70.668 12.3066C70.8711 12.1973 71.0234 12.0449 71.125 11.8496C71.2305 11.6543 71.2832 11.4277 71.2832 11.1699C71.2832 10.8965 71.2324 10.6602 71.1309 10.4609C71.0293 10.2617 70.875 10.1094 70.668 10.0039C70.4609 9.89844 70.2012 9.8457 69.8887 9.8457H68.4648V17H66.707V8.46875ZM71.4766 17L69.5312 13.1973L71.3887 13.1855L73.3574 16.918V17H71.4766ZM76.2637 8.46875V17H74.5117V8.46875H76.2637ZM84.918 12.5352V12.9395C84.918 13.5879 84.8301 14.1699 84.6543 14.6855C84.4785 15.2012 84.2305 15.6406 83.9102 16.0039C83.5898 16.3633 83.207 16.6387 82.7617 16.8301C82.3203 17.0215 81.8301 17.1172 81.291 17.1172C80.7559 17.1172 80.2656 17.0215 79.8203 16.8301C79.3789 16.6387 78.9961 16.3633 78.6719 16.0039C78.3477 15.6406 78.0957 15.2012 77.916 14.6855C77.7402 14.1699 77.6523 13.5879 77.6523 12.9395V12.5352C77.6523 11.8828 77.7402 11.3008 77.916 10.7891C78.0918 10.2734 78.3398 9.83398 78.6602 9.4707C78.9844 9.10742 79.3672 8.83008 79.8086 8.63867C80.2539 8.44727 80.7441 8.35156 81.2793 8.35156C81.8184 8.35156 82.3086 8.44727 82.75 8.63867C83.1953 8.83008 83.5781 9.10742 83.8984 9.4707C84.2227 9.83398 84.4727 10.2734 84.6484 10.7891C84.8281 11.3008 84.918 11.8828 84.918 12.5352ZM83.1426 12.9395V12.5234C83.1426 12.0703 83.1016 11.6719 83.0195 11.3281C82.9375 10.9844 82.8164 10.6953 82.6562 10.4609C82.4961 10.2266 82.3008 10.0508 82.0703 9.93359C81.8398 9.8125 81.5762 9.75195 81.2793 9.75195C80.9824 9.75195 80.7188 9.8125 80.4883 9.93359C80.2617 10.0508 80.0684 10.2266 79.9082 10.4609C79.752 10.6953 79.6328 10.9844 79.5508 11.3281C79.4688 11.6719 79.4277 12.0703 79.4277 12.5234V12.9395C79.4277 13.3887 79.4688 13.7871 79.5508 14.1348C79.6328 14.4785 79.7539 14.7695 79.9141 15.0078C80.0742 15.2422 80.2695 15.4199 80.5 15.541C80.7305 15.6621 80.9941 15.7227 81.291 15.7227C81.5879 15.7227 81.8516 15.6621 82.082 15.541C82.3125 15.4199 82.5059 15.2422 82.6621 15.0078C82.8184 14.7695 82.9375 14.4785 83.0195 14.1348C83.1016 13.7871 83.1426 13.3887 83.1426 12.9395Z" fill="#254392"/>
<line x1="23" y1="39.75" x2="75" y2="39.75" stroke="#18388C" stroke-width="0.5"/>
</svg>
