<svg width="98" height="98" viewBox="0 0 98 98" fill="none" xmlns="http://www.w3.org/2000/svg">
<rect x="0.5" y="0.5" width="97" height="97" rx="11.5" fill="#D9D9D9" stroke="#4472C4"/>
<g filter="url(#filter0_b_58_130)">
<circle cx="49" cy="43" r="35" fill="#F0F5FF"/>
<circle cx="49" cy="43" r="35.5" stroke="#4A6EC9"/>
</g>
<g clip-path="url(#clip0_58_130)">
<path d="M46.9804 41.1527L35.9674 41.1522C35.4811 41.1522 35.0869 41.5464 35.0869 42.0327V45.5508C35.0869 46.0371 35.4811 46.4313 35.9674 46.4313H42.1692C41.4901 48.1937 40.2226 49.6697 38.6054 50.6075L41.2499 55.1854C45.492 52.732 47.9999 48.4273 47.9999 43.6086C47.9999 42.9225 47.9493 42.432 47.8482 41.8797C47.7713 41.4601 47.407 41.1527 46.9804 41.1527Z" fill="#167EE6"/>
<path d="M34.4999 51.7174C31.4649 51.7174 28.8153 50.0591 27.3922 47.6053L22.8146 50.2438C25.1441 54.2812 29.5081 57 34.4999 57C36.9488 57 39.2594 56.3407 41.2499 55.1917V55.1854L38.6055 50.6075C37.3958 51.3091 35.9961 51.7174 34.4999 51.7174Z" fill="#12B347"/>
<path d="M41.25 55.1916V55.1853L38.6055 50.6074C37.3959 51.309 35.9962 51.7173 34.5 51.7173V57C36.9488 57 39.2596 56.3406 41.25 55.1916Z" fill="#0F993E"/>
<path d="M26.2826 43.5001C26.2826 42.0041 26.6909 40.6044 27.3923 39.3949L22.8146 36.7564C21.6593 38.7406 21 41.045 21 43.5001C21 45.9552 21.6593 48.2596 22.8146 50.2438L27.3923 47.6053C26.6909 46.3957 26.2826 44.9961 26.2826 43.5001Z" fill="#FFD500"/>
<path d="M34.4999 35.2826C36.4791 35.2826 38.2971 35.9859 39.717 37.1557C40.0674 37.4442 40.5765 37.4234 40.8974 37.1025L43.3902 34.6098C43.7542 34.2457 43.7283 33.6497 43.3394 33.3124C40.9603 31.2484 37.8648 30 34.4999 30C29.5081 30 25.1441 32.7188 22.8146 36.7563L27.3922 39.3948C28.8153 36.9409 31.4649 35.2826 34.4999 35.2826Z" fill="#FF4B26"/>
<path d="M39.7171 37.1557C40.0674 37.4442 40.5766 37.4234 40.8975 37.1025L43.3902 34.6098C43.7543 34.2457 43.7283 33.6497 43.3395 33.3124C40.9603 31.2483 37.8648 30 34.5 30V35.2826C36.4791 35.2826 38.2971 35.9859 39.7171 37.1557Z" fill="#D93F21"/>
</g>
<g clip-path="url(#clip1_58_130)">
<rect width="27" height="27" transform="translate(49 30)" fill="#DEE4F1"/>
<path d="M62.4999 51.7174C59.4649 51.7174 56.8153 50.0591 55.3922 47.6053L50.8146 50.2438C53.1441 54.2812 57.5081 57 62.4999 57C64.9488 57 67.2594 56.3407 69.2499 55.1917V55.1854L66.6055 50.6075C65.3958 51.3091 63.9961 51.7174 62.4999 51.7174Z" fill="#12B347"/>
<path d="M54.2826 43.5001C54.2826 42.0041 54.6909 40.6044 55.3923 39.3949L50.8146 36.7564C49.6593 38.7406 49 41.045 49 43.5001C49 45.9552 49.6593 48.2596 50.8146 50.2438L55.3923 47.6053C54.6909 46.3957 54.2826 44.9961 54.2826 43.5001Z" fill="#FFD500"/>
<path d="M54.2826 43.5001C54.2826 42.0041 54.6909 40.6044 55.3923 39.3949L50.8146 36.7564C49.6593 38.7406 49 41.045 49 43.5001C49 45.9552 49.6593 48.2596 50.8146 50.2438L55.3923 47.6053C54.6909 46.3957 54.2826 44.9961 54.2826 43.5001Z" fill="#FFD500"/>
<path d="M62.4999 35.2826C64.4791 35.2826 66.2971 35.9859 67.717 37.1557C68.0674 37.4442 68.5765 37.4234 68.8974 37.1025L71.3902 34.6098C71.7542 34.2457 71.7283 33.6497 71.3394 33.3124C68.9603 31.2484 65.8648 30 62.4999 30C57.5081 30 53.1441 32.7188 50.8146 36.7563L55.3922 39.3948C56.8153 36.9409 59.4649 35.2826 62.4999 35.2826Z" fill="#FF4B26"/>
<path d="M69.118 38.2144C69.4142 38.5582 69.9196 38.6241 70.2902 38.3623L73.1698 36.3286C73.5903 36.0316 73.6658 35.4398 73.3399 35.0414C71.3454 32.6036 68.5066 30.8482 65.1906 30.2773L64.2943 35.4833C66.2447 35.8191 67.917 36.8206 69.118 38.2144Z" fill="#D93F21"/>
<path d="M71.1854 42.6679C71.2466 43.1176 71.6346 43.4481 72.088 43.4304L75.6106 43.2933C76.1251 43.2732 76.5107 42.8181 76.4544 42.3064C76.1095 39.1756 74.6848 36.1572 72.2147 33.8723L68.6275 37.7502C70.0804 39.0941 70.9374 40.8449 71.1854 42.6679Z" fill="#18388C"/>
<path d="M75.8822 41.1293L64.8797 40.6484C64.3938 40.6272 63.9828 41.0037 63.9616 41.4896L63.8081 45.0044C63.7869 45.4902 64.1635 45.9012 64.6493 45.9224L70.8453 46.193C70.09 47.9241 68.7593 49.3434 67.1028 50.2098L69.545 54.8986C73.89 52.6326 76.5834 48.4414 76.7935 43.6273C76.8235 42.9418 76.7943 42.4496 76.7174 41.8934C76.6589 41.4708 76.3083 41.1479 75.8822 41.1293Z" fill="#167EE6"/>
<path d="M72.7426 52.4869L72.7407 52.4809L68.842 48.9101C67.8993 49.9429 66.6872 50.7532 65.2603 51.2032L66.8488 56.2413C69.1843 55.5049 71.1898 54.1812 72.7426 52.4869Z" fill="#0F993E"/>
<circle cx="62.7" cy="43.7" r="8.5" fill="#DBE1EF"/>
</g>
<path d="M35.0684 90.6465L36.7676 83.4688H37.7168L37.9336 84.6641L36.123 92H35.1035L35.0684 90.6465ZM34.1953 83.4688L35.6016 90.6465L35.4844 92H34.3477L32.4551 83.4688H34.1953ZM39.4277 90.6172L40.8164 83.4688H42.5566L40.6699 92H39.5332L39.4277 90.6172ZM38.25 83.4688L39.9609 90.6758L39.9141 92H38.8945L37.0723 84.6582L37.3066 83.4688H38.25ZM45.5684 90.6465L47.2676 83.4688H48.2168L48.4336 84.6641L46.623 92H45.6035L45.5684 90.6465ZM44.6953 83.4688L46.1016 90.6465L45.9844 92H44.8477L42.9551 83.4688H44.6953ZM49.9277 90.6172L51.3164 83.4688H53.0566L51.1699 92H50.0332L49.9277 90.6172ZM48.75 83.4688L50.4609 90.6758L50.4141 92H49.3945L47.5723 84.6582L47.8066 83.4688H48.75ZM56.0684 90.6465L57.7676 83.4688H58.7168L58.9336 84.6641L57.123 92H56.1035L56.0684 90.6465ZM55.1953 83.4688L56.6016 90.6465L56.4844 92H55.3477L53.4551 83.4688H55.1953ZM60.4277 90.6172L61.8164 83.4688H63.5566L61.6699 92H60.5332L60.4277 90.6172ZM59.25 83.4688L60.9609 90.6758L60.9141 92H59.8945L58.0723 84.6582L58.3066 83.4688H59.25Z" fill="#254392"/>
<defs>
<filter id="filter0_b_58_130" x="9" y="3" width="80" height="80" filterUnits="userSpaceOnUse" color-interpolation-filters="sRGB">
<feFlood flood-opacity="0" result="BackgroundImageFix"/>
<feGaussianBlur in="BackgroundImageFix" stdDeviation="2"/>
<feComposite in2="SourceAlpha" operator="in" result="effect1_backgroundBlur_58_130"/>
<feBlend mode="normal" in="SourceGraphic" in2="effect1_backgroundBlur_58_130" result="shape"/>
</filter>
<clipPath id="clip0_58_130">
<rect width="27" height="27" fill="white" transform="translate(21 30)"/>
</clipPath>
<clipPath id="clip1_58_130">
<rect width="27" height="27" fill="white" transform="translate(49 30)"/>
</clipPath>
</defs>
</svg>
